<?xml version="1.0" encoding="utf-8"?>
<!-- Generator: Adobe Illustrator 19.0.0, SVG Export Plug-In . SVG Version: 6.00 Build 0)  -->
<svg version="1.1" id="Layer_1" xmlns="http://www.w3.org/2000/svg" xmlns:xlink="http://www.w3.org/1999/xlink" x="0px" y="0px"
	 viewBox="-87 89 24 24" style="enable-background:new -87 89 24 24;" xml:space="preserve">
<style type="text/css">
	.st0{fill:#FFFFFF;}
</style>
<path class="st0" d="M-71,100v13l-6-5.3l-6,5.3V89h6.8c-1.1,1.2-1.8,2.8-1.8,4.5C-78,97.2-74.8,100.3-71,100z M-71.5,89
	c-2.5,0-4.5,2-4.5,4.5s2,4.5,4.5,4.5c2.5,0,4.5-2,4.5-4.5S-69,89-71.5,89z M-72,95.5l-1.7-1.6l0.7-0.7l1,0.9l2.1-2.2l0.7,0.7
	C-69.2,92.6-72,95.5-72,95.5z"/>
</svg>
